<svg width="36" height="36" viewBox="0 0 36 36" fill="none" xmlns="http://www.w3.org/2000/svg">
<path d="M32.9851 18C32.9902 19.9717 32.6027 21.9247 31.8451 23.745C31.1002 25.5687 29.9929 27.2221 28.5901 28.605C27.1994 29.9984 25.548 31.1045 23.7301 31.86C21.9097 32.6177 19.9568 33.0052 17.9851 33C15.9842 33.0094 14.003 32.606 12.1651 31.815L6.69007 32.625C6.22117 32.7022 5.7405 32.6634 5.29007 32.5119C4.83964 32.3605 4.43315 32.101 4.10613 31.7563C3.7791 31.4115 3.54149 30.9918 3.41405 30.534C3.28661 30.0762 3.27323 29.5942 3.37507 29.13L4.12507 23.655C3.3778 21.8641 3.00025 19.9406 3.01507 18C3.00787 16.033 3.39552 14.0845 4.15507 12.27C4.90445 10.448 6.00541 8.79149 7.39507 7.39503C8.78816 6.00038 10.4425 4.894 12.2635 4.13913C14.0844 3.38427 16.0363 2.99573 18.0076 2.99573C19.9788 2.99573 21.9307 3.38427 23.7517 4.13913C25.5726 4.894 27.227 6.00038 28.6201 7.39503C30.0246 8.78238 31.132 10.441 31.8751 12.27C32.6243 14.0866 33.0018 16.035 32.9851 18Z" fill="white"/>
</svg>
